<?xml version="1.0" encoding="UTF-8"?>
<svg width="600" height="120" version="1.1" xmlns="http://www.w3.org/2000/svg">
 <path class="st0" d="m114.13 8.52h3.1435v102.95h-3.1435zm391.76 12.181s6.287 1.1788 6.287 8.6447v64.049c0 6.68-6.287 8.2518-6.287 8.2518h25.541v-42.438l32.614 35.758s4.3224 6.287 13.753 6.287h12.181v-71.515s0.78588-9.0376-7.4659-9.0376h-18.468s5.8941 1.5718 5.8941 8.2518v34.186l-37.329-42.438zm-93.52 0s6.287 1.5718 6.287 8.2518v43.223s-1.5718 30.649 38.508 30.649 38.901-29.078 38.901-29.078v-44.795s0-8.2518-7.4659-8.2518h-18.861s6.287 1.1788 6.287 8.2518v44.009s0.78588 13.753-15.325 13.753c0 0-14.146 0.39294-14.146-14.539v-43.223s-0.39294-8.2518-7.4659-8.2518zm-24.755 80.946h32.221s-4.7153-1.1788-8.2517-10.216c-3.5365-9.4306-22.398-62.085-22.398-62.085s-1.9647-8.6447-9.0376-8.6447h-35.758s7.4659 1.5718 5.1082 7.8588c-1.1788 3.5365-7.8588 20.826-13.36 35.365h-8.2518c-5.5012 0-6.287 3.9294-8.2517 9.0376s-6.68 9.0376-6.68 9.0376c2.7506-1.5718 12.574-1.5718 12.574-1.5718h5.1082l-1.5718 4.3224s-4.7153 12.574-8.6447 16.503h23.576l7.8588-20.826h4.7153c5.5012-0.39294 7.4659-3.5365 8.6447-7.4659 1.5718-3.9294 6.68-10.216 6.68-10.216-2.7506 0.78588-10.609 0.78588-10.609 0.78588h-3.9294l8.2517-22.005zm-159.53-80.946s6.287 1.5718 6.287 7.8588v65.228c0 5.8941-6.287 7.8588-6.287 7.8588h32.221v-66.8h12.967s12.181 0 12.181 12.574-11.002 12.967-11.002 12.967h-11.788s5.1082 4.3223 11.788 18.861l6.68 14.539s4.3223 8.2517 9.8235 8.2517h25.541s-5.5012-1.5718-9.0376-9.4306c-3.5365-7.8588-2.7506-6.287-7.0729-16.896-4.7153-11.395-12.574-11.002-12.574-11.002s21.612-0.39294 21.612-22.791c0-22.791-32.614-20.826-32.614-20.826h-48.725zm-161.11 0c20.433 0 21.219 17.682 21.219 17.682 0 18.468-15.718 18.075-15.718 18.075 22.791 0 22.005 21.219 22.005 21.219 0 25.148-30.256 23.969-30.256 23.969h-54.226s6.287-1.5718 6.287-7.4659v-65.621c0-5.8941-5.8941-7.8588-5.8941-7.8588zm-25.148 13.753v52.654h15.325s13.36 0 12.574-11.395c0 0 0-9.4306-24.755-20.04h9.8235s10.609 0.39294 10.609-11.002c0-10.609-11.395-10.609-11.395-10.609zm152.07-13.753c20.433 0 21.219 17.682 21.219 17.682 0 18.468-15.718 18.075-15.718 18.075 22.791 0 22.005 21.219 22.005 21.219 0 25.148-30.256 23.969-30.256 23.969h-54.619s6.287-1.5718 6.287-7.4659v-65.621c0-5.8941-5.8941-7.8588-5.8941-7.8588zm-25.148 13.753v52.654h15.325s13.36 0 12.574-11.395c0 0 0-9.4306-24.755-20.04h9.8235s10.609 0.39294 10.609-11.002c0-10.609-11.395-10.609-11.395-10.609z" fill="#00a97a"/>
</svg>
