<?xml version="1.0" encoding="UTF-8" standalone="no"?>
<!-- Created with Inkscape (http://www.inkscape.org/) -->

<svg
   xmlns:dc="http://purl.org/dc/elements/1.1/"
   xmlns:cc="http://creativecommons.org/ns#"
   xmlns:rdf="http://www.w3.org/1999/02/22-rdf-syntax-ns#"
   xmlns:svg="http://www.w3.org/2000/svg"
   xmlns="http://www.w3.org/2000/svg"
   xmlns:sodipodi="http://sodipodi.sourceforge.net/DTD/sodipodi-0.dtd"
   xmlns:inkscape="http://www.inkscape.org/namespaces/inkscape"
   width="1000"
   height="291.91669"
   viewBox="0 0 264.58333 77.236293"
   version="1.1"
   id="svg8"
   inkscape:version="0.92.4 (5da689c313, 2019-01-14)"
   sodipodi:docname="A.svg">
  <defs
     id="defs2">
    <clipPath
       clipPathUnits="userSpaceOnUse"
       id="clipPath4738">
      <path
         d="m 521.745,742.11 h 67.26 v 77.414 h -67.26 z"
         id="path4736"
         inkscape:connector-curvature="0" />
    </clipPath>
    <clipPath
       clipPathUnits="userSpaceOnUse"
       id="clipPath5749">
      <path
         d="M 0,841.89 H 595.28 V 0 H 0 Z"
         id="path5747"
         inkscape:connector-curvature="0" />
    </clipPath>
  </defs>
  <sodipodi:namedview
     id="base"
     pagecolor="#ffffff"
     bordercolor="#666666"
     borderopacity="1.0"
     inkscape:pageopacity="0.82352941"
     inkscape:pageshadow="2"
     inkscape:zoom="0.24748738"
     inkscape:cx="1268.1254"
     inkscape:cy="118.13918"
     inkscape:document-units="px"
     inkscape:current-layer="layer1"
     showgrid="false"
     units="px"
     inkscape:window-width="1920"
     inkscape:window-height="1017"
     inkscape:window-x="1912"
     inkscape:window-y="-8"
     inkscape:window-maximized="1"
     inkscape:pagecheckerboard="true"
     fit-margin-top="0"
     fit-margin-left="0"
     fit-margin-right="0"
     fit-margin-bottom="0" />
  <metadata
     id="metadata5">
    <rdf:RDF>
      <cc:Work
         rdf:about="">
        <dc:format>image/svg+xml</dc:format>
        <dc:type
           rdf:resource="http://purl.org/dc/dcmitype/StillImage" />
        <dc:title></dc:title>
      </cc:Work>
    </rdf:RDF>
  </metadata>
  <g
     inkscape:label="Layer 1"
     inkscape:groupmode="layer"
     id="layer1"
     transform="translate(-191.49779,-77.957943)">
    <path
       inkscape:connector-curvature="0"
       id="path5753"
       style="fill:#003f68;fill-opacity:1;fill-rule:nonzero;stroke:none;stroke-width:3.55086517"
       d="m 223.46643,123.63982 c -1.48426,-3.36977 -2.8762,-6.5833 -3.0857,-7.16209 -0.21305,-0.55039 -0.40125,-1.02975 -0.42611,-1.05106 -0.0178,-0.0106 -0.70307,0.35509 -1.52331,0.84511 -2.0169,1.18244 -3.36623,1.91747 -3.36623,1.91747 0,0 -0.73858,-1.42745 -3.13186,-7.24022 -1.63695,-3.98407 -2.27611,-5.66363 -2.27611,-5.66363 0,0 -1.07236,-0.24501 -3.48694,-0.76343 -2.34002,-0.50423 -3.16028,-0.71018 -4.65874,-1.19665 -8.47946,-2.74481 -11.82793,-7.289922 -9.06536,-12.317947 5.66363,-8.145685 17.76498,-11.955763 27.92045,-13.04943 -1.71151,0.926776 -5.08838,2.677352 -7.13723,3.628984 -5.29079,2.641844 -8.06757,4.410175 -9.94243,6.341845 -1.64405,1.700865 -2.95431,3.437238 -2.32226,4.733304 0.77053,1.583686 3.47274,2.74837 7.8048,3.376873 1.53752,0.216602 2.74127,0.319577 6.23177,0.543282 1.33867,0.09232 2.38263,0.159789 2.50691,0.16334 1.2428,2.819387 2.05595,4.960559 3.57572,8.056909 2.34712,-1.47716 3.37687,-2.13407 5.89089,-3.76391 0,0 0.45805,3.40173 2.0879,17.2501 1.09367,9.27131 1.66536,14.46978 1.85,16.79204 -0.0248,2.24415 0.54329,6.48743 0.54329,6.48743 0,0 -7.97879,-17.89991 -7.98945,-17.92832" />
    <path
       inkscape:connector-curvature="0"
       id="path5757"
       style="fill:#003f68;fill-opacity:1;fill-rule:nonzero;stroke:none;stroke-width:3.55086517"
       d="m 241.1082,123.63982 c 1.48071,-3.36977 2.8691,-6.5833 3.0857,-7.16209 0.2095,-0.55039 0.3977,-1.0333 0.42256,-1.05106 0.0142,-0.0106 0.70307,0.35509 1.52331,0.83801 2.01335,1.18954 3.36978,1.92457 3.36978,1.92457 0,0 0.73503,-1.42745 3.12476,-7.24022 1.6405,-3.98407 2.28321,-5.66363 2.28321,-5.66363 0,0 1.06881,-0.24501 3.47984,-0.76343 2.34003,-0.50423 3.16738,-0.71018 4.66229,-1.19665 8.47592,-2.74481 11.82793,-7.289922 9.06536,-12.317947 -5.65298,-8.145685 -17.76143,-11.955763 -27.92045,-13.04943 1.71151,0.926776 5.09193,2.677352 7.13723,3.628984 5.29079,2.641844 8.06757,4.410175 9.94598,6.341845 1.64405,1.700865 2.94722,3.437238 2.31871,4.733304 -0.77409,1.583686 -3.47274,2.74837 -7.80835,3.376873 -1.53397,0.216602 -2.74127,0.319577 -6.22467,0.543282 -1.34222,0.09232 -2.38618,0.159789 -2.51756,0.16334 -1.23215,2.819387 -2.04885,4.960559 -3.56862,8.056909 -2.34357,-1.47716 -3.37687,-2.13407 -5.89089,-3.76391 0,0 -0.45806,3.40173 -2.09145,17.2501 -1.09012,9.27131 -1.65826,14.46978 -1.83935,16.79204 0.0142,2.24415 -0.55394,6.48743 -0.55394,6.48743 0,0 7.9788,-17.89991 7.99655,-17.92832" />
    <path
       inkscape:connector-curvature="0"
       id="path5769"
       style="fill:#003f68;fill-opacity:1;fill-rule:nonzero;stroke:none;stroke-width:3.55086517"
       d="m 350.49296,111.70075 h 1.30316 c 3.43369,0 3.94857,-2.22284 3.94857,-3.54377 0,-1.32447 -0.51488,-3.55086 -3.94857,-3.55441 h -1.30316 z m 7.39645,4.99251 h -1.97073 l -2.63474,-3.58992 c -0.42611,0.0781 -0.90192,0.11718 -1.41324,0.11718 h -1.37774 v 3.47274 h -1.61919 l 0.004,-13.61401 h 2.99693 c 3.39818,0 5.5074,1.94587 5.5074,5.07773 0,1.98849 -0.90548,3.56152 -2.51401,4.39598 z" />
    <path
       inkscape:connector-curvature="0"
       id="path5773"
       style="fill:#003f68;fill-opacity:1;fill-rule:nonzero;stroke:none;stroke-width:3.55086517"
       d="m 361.67782,112.69606 h 5.26239 l -2.6241,-6.65788 z m 8.55759,4.00182 h -1.70442 l -0.97293,-2.47495 -6.48034,-0.007 -0.97648,2.48206 h -1.68666 l 5.50384,-13.76671 h 0.79895 z" />
    <path
       inkscape:connector-curvature="0"
       id="path5777"
       style="fill:#003f68;fill-opacity:1;fill-rule:nonzero;stroke:none;stroke-width:3.55086517"
       d="m 373.56328,116.69753 h -1.61919 v -13.61402 h 8.28416 v 1.52687 h -6.66497 v 5.98321 h 6.04712 v 1.54462 h -6.04712 z" />
    <path
       inkscape:connector-curvature="0"
       id="path5781"
       style="fill:#003f68;fill-opacity:1;fill-rule:nonzero;stroke:none;stroke-width:3.55086517"
       d="m 383.57956,112.69606 h 5.26948 l -2.62408,-6.65788 z m 8.56468,4.00537 h -1.70441 l -0.97649,-2.4785 h -6.48033 l -0.98004,2.4785 h -1.6831 l 5.50383,-13.7667 h 0.79895 z" />
    <path
       inkscape:connector-curvature="0"
       id="path5785"
       style="fill:#003f68;fill-opacity:1;fill-rule:nonzero;stroke:none;stroke-width:3.55086517"
       d="m 408.90895,116.85731 h -0.85576 l -8.05692,-10.44664 -0.004,10.29396 h -1.56593 l 0.004,-13.76671 h 0.85931 l 8.06047,10.45375 v -10.30106 h 1.55883 z" />
    <path
       inkscape:connector-curvature="0"
       id="path5789"
       style="fill:#003f68;fill-opacity:1;fill-rule:nonzero;stroke:none;stroke-width:3.55086517"
       d="m 413.87981,112.7028 5.26238,0.004 -2.62054,-6.65432 z m 8.56113,4.00893 h -1.70441 l -0.97649,-2.48206 h -6.47678 l -0.98004,2.47851 h -1.68666 l 5.50384,-13.76671 h 0.79895 z" />
    <path
       inkscape:connector-curvature="0"
       id="path5793"
       style="fill:#003f68;fill-opacity:1;fill-rule:nonzero;stroke:none;stroke-width:3.55086517"
       d="m 425.76704,115.16497 h 1.43455 c 3.7142,0 5.84473,-1.92102 5.84473,-5.26238 0,-3.34847 -2.13053,-5.26593 -5.84118,-5.26593 h -1.4381 z m 1.52687,1.54818 h -3.14961 l 0.007,-13.62112 3.14253,0.004 c 4.56996,0 7.4071,2.60989 7.4071,6.80701 0,4.20067 -2.83714,6.81056 -7.4071,6.81056" />
    <path
       inkscape:connector-curvature="0"
       id="path5797"
       style="fill:#003f68;fill-opacity:1;fill-rule:nonzero;stroke:none;stroke-width:3.55086517"
       d="m 438.05445,112.7099 h 5.26594 l -2.62055,-6.65077 z m 8.56468,4.00538 h -1.70796 l -0.97294,-2.4785 h -6.48033 l -0.97648,2.47495 h -1.68666 l 5.50028,-13.76671 h 0.8025 z" />
    <path
       inkscape:connector-curvature="0"
       id="path5801"
       style="fill:#003f68;fill-opacity:1;fill-rule:nonzero;stroke:none;stroke-width:3.55086517"
       d="m 456.08113,116.71492 h -7.75865 l 0.004,-13.61756 h 1.6192 l -0.004,12.09069 h 6.13945 z" />
    <path
       inkscape:connector-curvature="0"
       id="path5805"
       style="fill:#003f68;fill-opacity:1;fill-rule:nonzero;stroke:none;stroke-width:3.55086517"
       d="M 262.01108,146.31494 H 273.594 l -5.7524,-13.42937 z m -8.37649,8.03205 14.20701,-32.38744 14.16795,32.38744 h -4.9428 l -1.58369,-3.70355 h -15.28647 l -1.62275,3.70355 z" />
    <path
       inkscape:connector-curvature="0"
       id="path5809"
       style="fill:#003f68;fill-opacity:1;fill-rule:nonzero;stroke:none;stroke-width:3.55086517"
       d="m 306.0553,124.38905 -2.15893,3.82073 c -1.54462,-0.95873 -3.40173,-1.50556 -5.59972,-1.50556 -6.64011,0 -11.66104,5.44702 -11.66104,11.85279 0,6.40931 5.02093,11.89184 11.66104,11.89184 6.64013,0 11.6575,-5.48253 11.6575,-11.89184 h 4.55576 c 0,8.95528 -7.25797,16.21324 -16.21326,16.21324 -8.57178,0 -16.21324,-7.06622 -16.21324,-16.21324 0,-9.15058 7.64146,-16.17419 16.21324,-16.17419 2.77678,0 5.44348,0.73147 7.75865,2.00623" />
    <path
       inkscape:connector-curvature="0"
       id="path5813"
       style="fill:#003f68;fill-opacity:1;fill-rule:nonzero;stroke:none;stroke-width:3.55086517"
       d="m 324.73889,146.31494 h 11.57937 l -5.7524,-13.42937 z m -8.38005,8.03205 14.20702,-32.38744 14.16795,32.38744 h -4.9428 l -1.58369,-3.70355 h -15.28648 l -1.61919,3.70355 z" />
    <path
       inkscape:connector-curvature="0"
       id="path5817"
       style="fill:#003f68;fill-opacity:1;fill-rule:nonzero;stroke:none;stroke-width:3.55086517"
       d="m 355.77238,127.13174 h -3.4763 v 22.88888 h 3.4763 c 7.60596,0 11.23139,-5.24817 11.23139,-11.46219 0,-6.21402 -3.62543,-11.42669 -11.23139,-11.42669 m -8.0285,27.21384 v -31.54234 h 8.0285 c 9.34233,0 15.75164,6.37025 15.75164,15.75519 0,9.37783 -6.40931,15.78715 -15.75164,15.78715 z" />
    <path
       inkscape:connector-curvature="0"
       id="path5821"
       style="fill:#003f68;fill-opacity:1;fill-rule:nonzero;stroke:none;stroke-width:3.55086517"
       d="m 380.36,127.13174 v 4.63388 h 8.37649 v 4.31785 H 380.36 v 3.32361 h 8.37649 v 4.32496 H 380.36 v 6.28858 h 9.57313 v 4.32496 h -14.12889 v -31.54234 h 14.12889 v 4.3285 z" />
    <path
       inkscape:connector-curvature="0"
       id="path5825"
       style="fill:#003f68;fill-opacity:1;fill-rule:nonzero;stroke:none;stroke-width:3.55086517"
       d="m 422.55066,135.27743 -10.0383,19.9168 -10.0738,-20.03398 -4.5167,19.18532 h -4.66939 l 7.71958,-32.1957 11.54031,23.12679 11.66104,-23.31853 7.71959,32.38744 h -4.63033 z" />
    <path
       inkscape:connector-curvature="0"
       id="path5829"
       style="fill:#003f68;fill-opacity:1;fill-rule:nonzero;stroke:none;stroke-width:3.55086517"
       d="m 431.00314,122.8043 h 5.09549 l 6.98811,15.32554 5.05642,-10.99703 h -6.71468 v -4.32851 h 13.85193 l -9.91757,20.7335 v 10.80884 h -4.55576 V 143.5378 Z" />
  </g>
</svg>
